<svg xmlns="http://www.w3.org/2000/svg" viewBox="0 0 1037 232" width="1037" height="232" role="img" font-family="'SF Mono', 'JetBrains Mono', 'Menlo', 'DejaVu Sans Mono', 'Consolas', monospace">
<defs>
  <marker id="arr" markerWidth="8.5" markerHeight="8" refX="6" refY="3" orient="auto" markerUnits="userSpaceOnUse"><path d="M0,0 L6,3 L0,6 Z" fill="#9aa09c"/></marker>
  <style>@media (prefers-reduced-motion: reduce){ .flow{ display:none; } }</style>
</defs>
<rect x="0" y="0" width="1037" height="232" fill="#F8F8F1"/>
<g><rect x="445.6" y="106" width="365" height="84" rx="12" fill="none" stroke="#9a9e9b" stroke-width="1" stroke-dasharray="2 4"/><text x="457.6" y="100" font-family="'SF Mono', 'JetBrains Mono', 'Menlo', 'DejaVu Sans Mono', 'Consolas', monospace" font-size="11" letter-spacing="1.2" fill="#6e7372">WORKER POOL</text></g>
<g><path d="M 168 106 L 187 106 Q 197 106 207 106 L 226 106" fill="none" stroke="#B4B6B2" stroke-width="1" marker-end="url(#arr)"/><path d="M 347.01 128 L 389.96 144.43 Q 399.3 148 409.3 148 L 435.6 148 Q 445.6 148 455.6 148 L 474.6 148" fill="none" stroke="#B4B6B2" stroke-width="1" marker-end="url(#arr)"/><path d="M 347.01 84 L 389.96 67.57 Q 399.3 64 409.3 64 L 435.6 64 Q 445.6 64 455.6 64 L 477.1 64" fill="none" stroke="#B4B6B2" stroke-width="1" marker-end="url(#arr)"/><path d="M 601.6 148 L 620.6 148 Q 630.6 148 640.6 148 L 659.6 148" fill="none" stroke="#B4B6B2" stroke-width="1" marker-end="url(#arr)"/><path d="M 781.6 148 L 800.6 148 Q 810.6 148 820.6 148 L 829.6 148 Q 839.6 148 849.6 148 L 868.6 148" fill="none" stroke="#B4B6B2" stroke-width="1" marker-end="url(#arr)"/></g>
<g><circle cx="180" cy="106" r="2.4" fill="#A84B2F"/><g class="flow" opacity="0"><circle r="5" fill="#A84B2F" opacity="0.12"/><circle r="2.8" fill="#A84B2F"/><animateMotion dur="2.6s" begin="0s" repeatCount="indefinite" rotate="0" path="M 168 106 L 187 106 Q 197 106 207 106 L 226 106"/><animate attributeName="opacity" dur="2.6s" begin="0s" repeatCount="indefinite" values="0;1;1;0" keyTimes="0;0.12;0.86;1"/></g><circle cx="358.22" cy="132.29" r="2.4" fill="#A84B2F"/><g class="flow" opacity="0"><circle r="5" fill="#A84B2F" opacity="0.12"/><circle r="2.8" fill="#A84B2F"/><animateMotion dur="2.6s" begin="0.5s" repeatCount="indefinite" rotate="0" path="M 347.01 128 L 389.96 144.43 Q 399.3 148 409.3 148 L 435.6 148 Q 445.6 148 455.6 148 L 474.6 148"/><animate attributeName="opacity" dur="2.6s" begin="0.5s" repeatCount="indefinite" values="0;1;1;0" keyTimes="0;0.12;0.86;1"/></g><circle cx="358.22" cy="79.71" r="2.4" fill="#A84B2F"/><g class="flow" opacity="0"><circle r="5" fill="#A84B2F" opacity="0.12"/><circle r="2.8" fill="#A84B2F"/><animateMotion dur="2.6s" begin="1s" repeatCount="indefinite" rotate="0" path="M 347.01 84 L 389.96 67.57 Q 399.3 64 409.3 64 L 435.6 64 Q 445.6 64 455.6 64 L 477.1 64"/><animate attributeName="opacity" dur="2.6s" begin="1s" repeatCount="indefinite" values="0;1;1;0" keyTimes="0;0.12;0.86;1"/></g><circle cx="613.6" cy="148" r="2.4" fill="#A84B2F"/><g class="flow" opacity="0"><circle r="5" fill="#A84B2F" opacity="0.12"/><circle r="2.8" fill="#A84B2F"/><animateMotion dur="2.6s" begin="1.5s" repeatCount="indefinite" rotate="0" path="M 601.6 148 L 620.6 148 Q 630.6 148 640.6 148 L 659.6 148"/><animate attributeName="opacity" dur="2.6s" begin="1.5s" repeatCount="indefinite" values="0;1;1;0" keyTimes="0;0.12;0.86;1"/></g><circle cx="793.6" cy="148" r="2.4" fill="#A84B2F"/><g class="flow" opacity="0"><circle r="5" fill="#A84B2F" opacity="0.12"/><circle r="2.8" fill="#A84B2F"/><animateMotion dur="2.6s" begin="2s" repeatCount="indefinite" rotate="0" path="M 781.6 148 L 800.6 148 Q 810.6 148 820.6 148 L 829.6 148 Q 839.6 148 849.6 148 L 868.6 148"/><animate attributeName="opacity" dur="2.6s" begin="2s" repeatCount="indefinite" values="0;1;1;0" keyTimes="0;0.12;0.86;1"/></g></g>
<g><g transform="translate(399.3 148)"><rect x="-17.3" y="-10" width="34.6" height="20" rx="4" fill="#F8F8F1"/><text x="0" y="3.6" text-anchor="middle" font-family="'SF Mono', 'JetBrains Mono', 'Menlo', 'DejaVu Sans Mono', 'Consolas', monospace" font-size="10.5" letter-spacing="0.2" fill="#5f6463">yes</text></g><g transform="translate(399.3 64)"><rect x="-14.2" y="-10" width="28.4" height="20" rx="4" fill="#F8F8F1"/><text x="0" y="3.6" text-anchor="middle" font-family="'SF Mono', 'JetBrains Mono', 'Menlo', 'DejaVu Sans Mono', 'Consolas', monospace" font-size="10.5" letter-spacing="0.2" fill="#5f6463">no</text></g></g>
<g><rect x="46" y="84" width="122" height="44" rx="9" fill="#F8F8F1" stroke="#9a9e9b" stroke-width="1"/><text x="107" y="110.8" text-anchor="middle" font-family="'SF Mono', 'JetBrains Mono', 'Menlo', 'DejaVu Sans Mono', 'Consolas', monospace" font-size="14" font-weight="600" fill="#242B2D">request</text><rect x="226" y="84" width="127" height="44" rx="9" fill="#F8F8F1" stroke="#242B2D" stroke-width="1"/><text x="289.5" y="110.8" text-anchor="middle" font-family="'SF Mono', 'JetBrains Mono', 'Menlo', 'DejaVu Sans Mono', 'Consolas', monospace" font-size="14" font-weight="600" fill="#242B2D">authorized?</text><rect x="474.6" y="126" width="127" height="44" rx="9" fill="#242B2D" stroke="#242B2D" stroke-width="1"/><text x="538.1" y="152.8" text-anchor="middle" font-family="'SF Mono', 'JetBrains Mono', 'Menlo', 'DejaVu Sans Mono', 'Consolas', monospace" font-size="14" font-weight="600" fill="#F8F8F1">process job</text><rect x="477.1" y="42" width="122" height="44" rx="9" fill="#A84B2F" stroke="#A84B2F" stroke-width="1"/><text x="538.1" y="68.8" text-anchor="middle" font-family="'SF Mono', 'JetBrains Mono', 'Menlo', 'DejaVu Sans Mono', 'Consolas', monospace" font-size="14" font-weight="600" fill="#F8F8F1">reject</text><rect x="659.6" y="126" width="122" height="44" rx="9" fill="#F8F8F1" stroke="#242B2D" stroke-width="1"/><text x="720.6" y="152.8" text-anchor="middle" font-family="'SF Mono', 'JetBrains Mono', 'Menlo', 'DejaVu Sans Mono', 'Consolas', monospace" font-size="14" font-weight="600" fill="#242B2D">persist</text><rect x="868.6" y="126" width="122" height="44" rx="9" fill="#A84B2F" stroke="#A84B2F" stroke-width="1"/><text x="929.6" y="152.8" text-anchor="middle" font-family="'SF Mono', 'JetBrains Mono', 'Menlo', 'DejaVu Sans Mono', 'Consolas', monospace" font-size="14" font-weight="600" fill="#F8F8F1">done</text></g>
</svg>