<svg xmlns="http://www.w3.org/2000/svg" viewBox="0 0 284 450" width="284" height="450" role="img" font-family="'SF Mono', 'JetBrains Mono', 'Menlo', 'DejaVu Sans Mono', 'Consolas', monospace">
<defs>
  <marker id="arr" markerWidth="8.5" markerHeight="8" refX="6" refY="3" orient="auto" markerUnits="userSpaceOnUse"><path d="M0,0 L6,3 L0,6 Z" fill="#9aa09c"/></marker>
  <style>@media (prefers-reduced-motion: reduce){ .flow{ display:none; } }</style>
</defs>
<rect x="0" y="0" width="284" height="450" fill="#F8F8F1"/>
<g></g>
<g><path d="M 139.05 62 L 139.05 81 Q 139.05 91 139.05 101 L 139.05 120" fill="none" stroke="#B4B6B2" stroke-width="1" marker-end="url(#arr)"/><path d="M 139.05 164 L 139.05 193 Q 139.05 203 139.05 213 L 139.05 242" fill="none" stroke="#B4B6B2" stroke-width="1" marker-end="url(#arr)"/><path d="M 139.05 286 L 139.05 315 Q 139.05 325 134.4 333.85 L 118.56 364" fill="none" stroke="#B4B6B2" stroke-width="1" marker-end="url(#arr)"/><path d="M 95.44 364 L 79.6 333.85 Q 74.95 325 82.19 318.11 L 115.93 286" fill="none" stroke="#B4B6B2" stroke-width="1" marker-end="url(#arr)"/><path d="M 167.34 286 L 209.61 318.86 Q 217.5 325 217.5 335 L 217.5 374" fill="none" stroke="#B4B6B2" stroke-width="1" marker-end="url(#arr)"/></g>
<g><circle cx="139.05" cy="74" r="2.4" fill="#A84B2F"/><g class="flow" opacity="0"><circle r="5" fill="#A84B2F" opacity="0.12"/><circle r="2.8" fill="#A84B2F"/><animateMotion dur="2.6s" begin="0s" repeatCount="indefinite" rotate="0" path="M 139.05 62 L 139.05 81 Q 139.05 91 139.05 101 L 139.05 120"/><animate attributeName="opacity" dur="2.6s" begin="0s" repeatCount="indefinite" values="0;1;1;0" keyTimes="0;0.12;0.86;1"/></g><circle cx="139.05" cy="176" r="2.4" fill="#A84B2F"/><g class="flow" opacity="0"><circle r="5" fill="#A84B2F" opacity="0.12"/><circle r="2.8" fill="#A84B2F"/><animateMotion dur="2.6s" begin="0.5s" repeatCount="indefinite" rotate="0" path="M 139.05 164 L 139.05 193 Q 139.05 203 139.05 213 L 139.05 242"/><animate attributeName="opacity" dur="2.6s" begin="0.5s" repeatCount="indefinite" values="0;1;1;0" keyTimes="0;0.12;0.86;1"/></g><circle cx="139.05" cy="298" r="2.4" fill="#A84B2F"/><g class="flow" opacity="0"><circle r="5" fill="#A84B2F" opacity="0.12"/><circle r="2.8" fill="#A84B2F"/><animateMotion dur="2.6s" begin="1s" repeatCount="indefinite" rotate="0" path="M 139.05 286 L 139.05 315 Q 139.05 325 134.4 333.85 L 118.56 364"/><animate attributeName="opacity" dur="2.6s" begin="1s" repeatCount="indefinite" values="0;1;1;0" keyTimes="0;0.12;0.86;1"/></g><circle cx="89.86" cy="353.38" r="2.4" fill="#A84B2F"/><g class="flow" opacity="0"><circle r="5" fill="#A84B2F" opacity="0.12"/><circle r="2.8" fill="#A84B2F"/><animateMotion dur="2.6s" begin="1.5s" repeatCount="indefinite" rotate="0" path="M 95.44 364 L 79.6 333.85 Q 74.95 325 82.19 318.11 L 115.93 286"/><animate attributeName="opacity" dur="2.6s" begin="1.5s" repeatCount="indefinite" values="0;1;1;0" keyTimes="0;0.12;0.86;1"/></g><circle cx="176.82" cy="293.37" r="2.4" fill="#A84B2F"/><g class="flow" opacity="0"><circle r="5" fill="#A84B2F" opacity="0.12"/><circle r="2.8" fill="#A84B2F"/><animateMotion dur="2.6s" begin="2s" repeatCount="indefinite" rotate="0" path="M 167.34 286 L 209.61 318.86 Q 217.5 325 217.5 335 L 217.5 374"/><animate attributeName="opacity" dur="2.6s" begin="2s" repeatCount="indefinite" values="0;1;1;0" keyTimes="0;0.12;0.86;1"/></g></g>
<g><g transform="translate(139.05 203)"><rect x="-23.5" y="-10" width="47" height="20" rx="4" fill="#F8F8F1"/><text x="0" y="3.6" text-anchor="middle" font-family="'SF Mono', 'JetBrains Mono', 'Menlo', 'DejaVu Sans Mono', 'Consolas', monospace" font-size="10.5" letter-spacing="0.2" fill="#5f6463">start</text></g><g transform="translate(139.05 325)"><rect x="-23.5" y="-10" width="47" height="20" rx="4" fill="#F8F8F1"/><text x="0" y="3.6" text-anchor="middle" font-family="'SF Mono', 'JetBrains Mono', 'Menlo', 'DejaVu Sans Mono', 'Consolas', monospace" font-size="10.5" letter-spacing="0.2" fill="#5f6463">pause</text></g><g transform="translate(74.95 325)"><rect x="-26.6" y="-10" width="53.2" height="20" rx="4" fill="#F8F8F1"/><text x="0" y="3.6" text-anchor="middle" font-family="'SF Mono', 'JetBrains Mono', 'Menlo', 'DejaVu Sans Mono', 'Consolas', monospace" font-size="10.5" letter-spacing="0.2" fill="#5f6463">resume</text></g><g transform="translate(217.5 325)"><rect x="-20.4" y="-10" width="40.8" height="20" rx="4" fill="#F8F8F1"/><text x="0" y="3.6" text-anchor="middle" font-family="'SF Mono', 'JetBrains Mono', 'Menlo', 'DejaVu Sans Mono', 'Consolas', monospace" font-size="10.5" letter-spacing="0.2" fill="#5f6463">done</text></g></g>
<g><circle cx="139.05" cy="52" r="7" fill="#242B2D"/><rect x="78.05" y="120" width="122" height="44" rx="9" fill="#F8F8F1" stroke="#242B2D" stroke-width="1"/><text x="139.05" y="146.8" text-anchor="middle" font-family="'SF Mono', 'JetBrains Mono', 'Menlo', 'DejaVu Sans Mono', 'Consolas', monospace" font-size="14" font-weight="600" fill="#242B2D">Idle</text><rect x="78.05" y="242" width="122" height="44" rx="9" fill="#F8F8F1" stroke="#242B2D" stroke-width="1"/><text x="139.05" y="268.8" text-anchor="middle" font-family="'SF Mono', 'JetBrains Mono', 'Menlo', 'DejaVu Sans Mono', 'Consolas', monospace" font-size="14" font-weight="600" fill="#242B2D">Running</text><rect x="46" y="364" width="122" height="44" rx="9" fill="#F8F8F1" stroke="#242B2D" stroke-width="1"/><text x="107" y="390.8" text-anchor="middle" font-family="'SF Mono', 'JetBrains Mono', 'Menlo', 'DejaVu Sans Mono', 'Consolas', monospace" font-size="14" font-weight="600" fill="#242B2D">Paused</text><circle cx="217.5" cy="386" r="9" fill="none" stroke="#242B2D" stroke-width="1.4"/><circle cx="217.5" cy="386" r="4.5" fill="#242B2D"/></g>
</svg>